/* XPM */
static char *b2ab47f7e984454aac194c49b1128104OCIHG6rsNOCLUOoU[] = {
/* columns rows colors chars-per-pixel */
"64 64 22 1 ",
"  c black",
". c #2D505C",
"X c #305A69",
"o c #336475",
"O c #3B6A79",
"+ c #3D6F7A",
"@ c #4E767E",
"# c gray47",
"$ c #3F778A",
"% c #477F91",
"& c #43839B",
"* c #4C8FA6",
"= c #5192A0",
"- c #509EBA",
"; c #669CA6",
": c #61B0C1",
"> c #7BBBC8",
", c #989A9C",
"< c gray63",
"1 c gray83",
"2 c #F1F4F7",
"3 c white",
/* pixels */
"************----********%%%%%%%%%%%%----************%%%%%%%%%%%%",
"************----********%%%%%%%%%%%%----************%%%%%%%%%%%%",
"************----********%%%%%%%%%%%%----************%%%%%%%%%%%%",
"************----********%%%%%%%%%%%%----************%%%%%%%%%%%%",
"********----************************----************************",
"********----************************----************************",
"********----************************----************************",
"********----************************----************************",
"----****::::************----::::****>>>>********************----",
"----****::::************----::::****>>>>********************----",
"----****::::************----::::****>>>>********************----",
"----****::::************----::::****>>>>********************----",
"****--------::::>>>>::::%%%%%%%%----::::************----::::%%%%",
"****--------::::>>>>:::1#         --:1<                 ::::%%%%",
"****--------::::>>>>::1#          --:1<                 ::::%%%%",
"****--------::::>>>>:1#   131    ---:1<      *   33     ::::%%%%",
"************----****1#   133    %%%%-1<     **   3      %%%%****",
"************----***1#          *%%%%-1<    ***          %%%%****",
"************----**1#          **%%%%-1<   ****          %%%%****",
"************----*1#          ***%%%%-1<  *****          %%%%****",
"************----1#          *********1< ----::          ********",
"************---1#          **********1<*----::          ********",
"************--1#          ***********1**----::          ********",
"************-1#          ***************----::          ********",
"********::::1#          ********************:1          ********",
"********:::1#          *********************1#         *********",
"********::1#          *********************1#         **********",
"********:1#          *********************1#         ***********",
"::::::::1#          ----------------****-1#         ************",
":::::::1#          %----------------****1#         *************",
"::::::1#          %%----------------***1#         **************",
":::::1#          %%%----------------**1#         ***************",
"****1#          ----************%%%%-1#         ****************",
"****#          111111111111111111%%%-#         ********1********",
"****            ################ OOO&          *******1#********",
"****                             OOO&          ******1# ********",
"****                             OO;;          *****1#  ****----",
"****                             O;;;          XXX*1#   **>*----",
"****                             O;;;          XXX1#    *>>>>>--",
"****                             ;;..          XX1#     XXX,>>--",
"----                             $XX.          +1#      ++++2>%%",
"----********::::>>>>**           $XX.          1#       ++++%%%%",
"----********::::>>>>>>           $XX.                   ++=:%%%%",
"----********::222222>>           XXX....oooo++++@@@@oooo++=:%%%%",
"%%%%----::::**2**>>$$$           $$$$XXX++++XXXX........OOOO*2**",
"%%%%----:===$$$$$$$$$$           $$$$$$$++++XXX$OOOO.OOOO%%O>2**",
"%%%%----====$$$$$$$$$$           XX$$$$$====$X$$OOOOOOOOO%%>22**",
"%%%%---&====$$X$$$X$$X           $$$**$$====$*$$OOOOOOO%%%>22>**",
"****%%%O&&ooXXXXXXXXXX           $$$=:::**************>>>2222***",
"****%%%O&&ooXXXXXXXXXX           XX$==::***************>>>22****",
"****%%%O&&ooXXXXXXXXXXXXXXXXXXXXXXX$==:2>>**********************",
"****%%>O&&ooXXXXXXXXXXXXXXXXXXXXXXX$==22>>****************2>****",
"******>>%O..+===XXXXXXXXXXXXXXXXo&&-%222>%%2***********222>*----",
"*****2>>%OO%:===$XXXXXXXXXXXXXX$&&->222>%%%>**********2*****----",
"*****222>OO%:::=****$$$$X$$$$XX$&&>>>>>%%%%%****************----",
"******22>>>%:::=******$$X$$$$***----%%%%%%%%****************----",
"----:::222>*****----::::::::----%%%%****************::::::::%%%%",
"----::::********----::::::::----%%%%****************::::::::%%%%",
"----:::>****>>**----::::::::----%%%%****************::::::::%%%%",
"----:::>>>>>>***----::::::::----%%%%****************::::::::%%%%",
"****%%%>>:::----************%%%%********----::::----****%%%%****",
"****%%%%::::----************%%%%********----::::----****%%%%****",
"****%%%%::::----************%%%%********----::::----****%%%%****",
"****%%%%::::----************%%%%********----::::----****%%%%****"
};
