/* XPM */
static char *_9a6085f232e4baac24e0aa9199fb73drgArnkWs0XgZLZF1[] = {
/* columns rows colors chars-per-pixel */
"64 64 10 1 ",
"  c black",
". c #1E343B",
"X c #477F91",
"o c #4C8FA6",
"O c #509EBA",
"+ c #61B0C1",
"@ c #7BBBC8",
"# c #BEE5ED",
"$ c #E6F9FC",
"% c #F1F4F7",
/* pixels */
"ooooooooooooOOOOooooooooXXXXXXXXXXXXOOOOooooooooooooXXXXXXXXXXXX",
"ooooooooooooOOOOooooooooXXXXXXXXXXXXOOOOooooooooooooXXXXXXXXXXXX",
"ooooooooooooOOOOooooooooXXXXXXXXXXXXOOOOooooooooooooXXXXXXXXXXXX",
"ooooooooooooOOOOooooooooXXXXXXXXXXXXOOOOooooooooooooXXXXXXXXXXXX",
"ooooooooOOOOooooooooooooooooooooooooOOOOoooooooooooooooooooooooo",
"ooooooooOOOOooooooooooooooooooooooooOOOOoooooooooooooooooooooooo",
"ooooooooOOOOooooooooooooooooooooooooOOOOoooooooooooooooooooooooo",
"ooooooooOOOOooooooooooooooooooooooooOOOOoooooooooooooooooooooooo",
"OOOOoooo++++ooooooooooooOOOO++++oooo@@@@ooooooooooooooooooooOOOO",
"OOOOoooo++++ooooooooooooOOOO++++oooo@@@@ooooooooooooooooooooOOOO",
"OOOOoooo++++ooooooooooooOOOO++++oooo@@@@ooooooooooooooooooooOOOO",
"OOOOoooo++++ooooooooooooOOOO++++oooo@@@@ooooooooooooooooooooOOOO",
"ooooOOOOOOOO++++@@@@++++XXXXXXXXOOOO++++ooooooooooooOOOO++++XXXX",
"ooooOOOOOOOO++++@@@@++++XXXXXXXXOOOO++++ooooooooooooOOOO++++XXXX",
"ooooOOOOOOOO++++@@@@++++XXXXXXXXOOOO++++ooooooooooooOOOO++++XXXX",
"ooooOOOOOOOO++++@@@@++++XXXXXXXXOOOO++++ooooooooooooOOOO++++XXXX",
"ooooooooooooOOOOooooooooooooooooXXXXOOOOoooooooo++++XXXXXXXXoooo",
"ooooooooooooOOOOooooooooooooooooXXXXOOOOoooooooo++++XXXXXXXXoooo",
"ooooooooooooOOOOooooooooooooooooXXXXOOOOoooooooo++++XXXXXXXXoooo",
"ooooooooooooOOOOooooooooooooooooXXXXOOOOoooooooo++++XXXXXXXXoooo",
"ooooooooooooOOOOooooooooooooooooooooooooOOOO++++XXXXoooooooooooo",
"ooooooo%%oooOOOOoooooo                    OOXXXXXXXXXXXXoooooooo",
"ooooo%%%%oXXXXXX                                XXXXXXXXoooooooo",
"oooo%%%XXXXX                                        XXX###oooooo",
"oo%%%oXXX                                              XXXo#%%oo",
"ooooXXX                                                  XXo#%oo",
"oooXXX                                                    XXo#oo",
"oXXX                                                        XXXo",
"+XX                                                          XXo",
"XXX                                                          XXo",
"XX                                                            Xo",
"XX                                                            Xo",
"X.                                                            Xo",
"XX.                                                          .Xo",
"XXX                                                          .oo",
"XXX.                                                        .Xoo",
"XXXX..                                                    ...XOO",
"oXXXX..                                                  ...XXOO",
"oXXXXXX..                                              ....XX%OO",
"ooXXXX#XX...                                        ..XXXXXX%%#O",
"OOOOoXXXXXX.....                                ..XXXXXXXXX%%##X",
"##OOooXXXXXXXX........                    ........XXXXXX+#%%$XXX",
"$#OOoooXXXXXXXXXXXXXXXXXXX................XXX+++@@XXXXXX%%%$$XXX",
"$%OOooooooXXXXXXXXXXXXXXXXXXXXXXXXXXXXXXXXXXXXXX@@XXXX#####+XXXX",
"%%%%OOOO++++oXXXXooooooooXXXXXXXXXXXXXXXXXXXXXXXXXXXX#XXXXXXoooo",
"X%%%%%OO++++oXXXXoooooooooXXXXXooXXXXXXXXXXXXoooXXXXXXXXXXXXoooo",
"XX%%%%%O++++ooooooooooooooXXXXXooXXXXXXoXXXXXoooXXXXXXXXXXXXoooo",
"X$$#%%%%%+++ooooooooooooooXXXXoooXXXXXXoXXXXXoooXXXXXXXX#XXXoooo",
"o$$$#%%%%OOOooooooo#%ooooooooooooooo++++oooooooooooooo###ooooooo",
"o$$$XXXXOOOOoooooooooooooooooooooooo++++oooooooooooooo$$$ooooooo",
"ooooXXXXOOOOoooooooooooooooooooooooo++++ooooooooooooo$$$$ooooooo",
"ooooXXXXOOOOoooooooooooooooooooooooo++++oooooooooooo$$$ooooooooo",
"ooooooooXXXX++++ooooooooooooooooOOOOXXXXXXXXoooooooo$$ooooooOOOO",
"ooooooooXXXX++++oooooooo%%%oooooOOOOXXXXXXXXooooooooooooooooOOOO",
"ooooooooXXXX++++ooooooo##%%%%%ooOOOOXXXXXXXXooooooooooooooooOOOO",
"ooooooooXXXX++++ooooooooooo####oOOOOXXXXXXXXooooooooooooooooOOOO",
"OOOO++++ooooooooOOOO++++++++OO#OXXXXoooooooooooooooo++++++++XXXX",
"OOOO++++ooooooooOOOO++++++++OOOOXXXXoooooooooooooooo++++++++XXXX",
"OOOO++++ooooooooOOOO++++++++OOOOXXXXoooooooooooooooo++++++++XXXX",
"OOOO++++ooooooooOOOO++++++++OOOOXXXXoooooooooooooooo++++++++XXXX",
"ooooXXXX++++OOOOooooooooooooXXXXooooooooOOOO++++OOOOooooXXXXoooo",
"ooooXXXX++++OOOOooooooooooooXXXXooooooooOOOO++++OOOOooooXXXXoooo",
"ooooXXXX++++OOOOooooooooooooXXXXooooooooOOOO++++OOOOooooXXXXoooo",
"ooooXXXX++++OOOOooooooooooooXXXXooooooooOOOO++++OOOOooooXXXXoooo"
};
