/* XPM */
static char *b298c3a83a954c55d33c70858d7869fb6iGX6g9kWRJAy1AQ[] = {
/* columns rows colors chars-per-pixel */
"64 64 16 1 ",
"  c #231129",
". c #CD5B39",
"X c #FE6C2E",
"o c #F5A804",
"O c #EE8E22",
"+ c #FFDE02",
"@ c #477F91",
"# c #4C8FA6",
"$ c #509EBA",
"% c #61B0C1",
"& c #7BBBC8",
"* c #87D1E0",
"= c #BEE5ED",
"- c #FEFCEF",
"; c #E6F9FC",
": c #F1F4F7",
/* pixels */
"############$$$$########@@@@@@@@@@@@$$$$############@@@@@@@@@@@@",
"############$$$$########@@@@@@@@@@@@$$$$############@@@@@@@@@@@@",
"############$$$$########@@@@@@@@@@@@$$$$############@@@@@@@@@@@@",
"############$$$$########@@@@@@@@@@@@$$$$############@@@@@@@@@@@@",
"########$$$$############         ###$$$$########################",
"########$$$$############         ###$$$$########################",
"########$$$$######      -----++++      $########################",
"########$$$$######      -----++++      $########################",
"$$$$####%%%%######      -----++++      &####################$$$$",
"$$$$####%%%%##### -----------+++++++ooo  ###################$$$$",
"$$$$####%%%%##### -----------+++++++ooo  ###################$$$$",
"$$$$####%%%%##### -----------+++++++ooo  ###################$$$$",
"####$$$$$$$$%%   -------+++++++++++++++OO   ########$$$$%%%%@@@@",
"####$$$$$$$$%%   -------+++++++++++++++OO   ########$$$$%%%%@@@@",
"####$$$$$$$$%%   -------+++++++++++++++OO   ########$$$$%%%%@@@@",
"####$$$$$$$$%%   ++++++++++++++++++++++OO   ########$$$$%%%%@@@@",
"############$$   ++++++++++++++++++++++OO   ####%%%%@@@@@@@@####",
"############$$   ++++++++++++++++++++++OO   ####%%%%@@@@@@@@####",
"############$$          +++++   -++++++OO   ####%%%%@@@@@@@@####",
"############$$          +++++   -++++++OO   ####%%%%@@@@@@@@####",
"###########   XXXXXXXXXX  +++    +++oooOO   %%%%@@@@############",
"###########   XXXXXXXXXX  +++    +++oooOO   %%%%@@@@############",
"###########   XXXXXXXXXX  +++    +++oooOO   %%%%@@@@############",
"###########   XXXXXXXXXX  +++++++oooOOOOO   %%%%      ##########",
"########%%%   XXXXXXXXXX  +++++++oooOOOOO   %%%%      ##########",
"########%%%   XXXXXXXXXX  +++++++oooOOOOO   %%%%      ##########",
"########%%%%@@          oooooooooOOOOOO     %%% ---ooo  ########",
"########%%%%@@          oooooooooOOOOOO     %%% ---ooo  #**#####",
"%%%%%%%%@@@@##          oooooooooOOOOOO     ### ---ooo  #**#####",
"%%%%%%%%@@@@####@ OOOOOOOOOOOOOOOOOOOOO         ---ooo  ##:#####",
"%%%%%%%%@@@@####@ OOOOOOOOOOOOOOOOOOOOO         ---ooo  ##***###",
"%%%%%%%%@@@@##   -ooooooooooooooooooooooooooooo-+++ooo  #;;**###",
"###**@@@@@@@##   -ooooooooooooooooooooooooooooo-+++ooo  #;;;*###",
"###**@@*==@@##   -ooooooooooooooooooooooooooooo-+++ooo  #;;:*###",
"###**@@*==@   ------------+++++++++++++++++++++++++ooo  ##::*###",
"####@@:**@@   ------------+++++++++++++++++++++++++ooo  ##::####",
"####;::####   ------------+++++++++++++++++++++++++ooo  ###:$$$$",
"####;:=##  ---------------+++++++               +++OOO  ####$$$$",
"####=:=##  ---------------+++++++               +++OOO  ###***$$",
"####*==##  ---------------+++++++               +++OOO  ###***$$",
"$$$$**###  ooo++++++++++++++++++ ++++++++++++++.   OOO  %%%%@@@@",
"$$$***###  ooo++++++++++++++++++ ++++++++++++++.   OOO  %%%%@@@@",
"$$$**####  ooo++++++++++++++++++ ++++++++++++++.   OOO  %%%%@@@@",
"$$$**####  OOOoooooooooooooooooo oooooooooooooo    OOO  %%%%@@@@",
"@@@@$$$$%  OOOoooooooooooooooooo oooooooooooooo    OOO  @@@@####",
"@@@@$$$$%%%   OOOOooooooooooooooo              ....   @@@@@@####",
"@@@@$$$$%%%   OOOOooooooooooooooo              ....   @@@@@@####",
"@@@@$$$$%%%   OOOOooooooooooooooo              ....   @@@**@####",
"####@@@@$$$$##   OOOOOOOOOOOOOOOOOOO............   ######**#####",
"####@@@@$$$$##   OOOOOOOOOOOOOOOOOOO............   #####***#####",
"####@@@@$$$$##   OOOOOOOOOOOOOOOOOOO............   #####**######",
"####@;;@$$$$##### OOOOOOOOOOOOOOOOOOOOOOOOOOOOO #######***######",
"####*;;=@@@@%%%%# OOOOOOOOOOOOOOOOOOOOOOOOOOOOO ######***##***$$",
"####**==@@@@%%%%# OOOOOOOOOOOOOOOOOOOOOOOOOOOOO ##;;##**##==**$$",
"#####*==@@@@%;;%##                             ###;;;=**##:=*$$$",
"#####***@@@@%;;==#                             ####;;=*##::*$$$$",
"$$$$%%***####**==$$$%%%%%%%%$$$$@@@@###############**%%%%;;*@@@@",
"$$$$%%%**######****$%%%%%%%%$$$$@;;;#######**#######%%%%%**%@@@@",
"$$$$%%%%#######**********%%%$$$$@;;;=#==*****#######%%%%%%%%@@@@",
"$$$$%%%%########$$*******%%%$$$$@@;;====*****#####**%%%%%%%%@@@@",
"####@@@@%%%%$$$$############@@@@##*=====****%%%%$$***###@@@@####",
"####@@@@%%%%$$$$############@@@@########$$$$%%%%$$***###@@@@####",
"####@@@@%%%%$$$$############@@@@########$$$$%%%%$$$$####@@@@####",
"####@@@@%%%%$$$$############@@@@########$$$$%%%%$$$$####@@@@####"
};
