/* XPM */
static char *_3820ee856e848b39e2b78432815a47dSKM7dVwXwPUiJLKO[] = {
/* columns rows colors chars-per-pixel */
"64 64 16 1 ",
"  c #AD7D30",
". c #BD8F44",
"X c #C99D57",
"o c #CFA35B",
"O c #D4A257",
"+ c #D9AC68",
"@ c #D6B175",
"# c #EBC178",
"$ c #F0C87F",
"% c #477F91",
"& c #4C8FA6",
"* c #509EBA",
"= c #61B0C1",
"- c #F0C887",
"; c #F7CF8B",
": c #F7D18F",
/* pixels */
"&&&&&&&&&&&&****&&&&&&&&%%%%%%%%%%%%****&&&&&&&&&&&&%%%%%%%%%%%%",
"&&&&&&&&&&&&****&&&&&&&&%%%%%%%%%%%%****&&&&&&&&&&&&%%%%%%%%%%%%",
"&&&&&&&&&&&&****&&&&&&&&%%%%%%$$#######*&&&&&&&&&&&&%%%%%%%%%%%%",
"&&&&&&&&&&&&****&&&&&&&&::::$$$$##########&&&&&&&&&&%%%%%%%%%%%%",
"&&&&&&&&****&&&&&&&-----::::$$$$#############&&&&&&&&&&&&&&&&&&&",
"&&&&&&&&****&&----------::::$$$$###############&&&&&&&&&&&&&&&&&",
"&&&&&&&&***oo@@@@@@@@@@@ooooooooooo$$$$###########&&&&&&&&&&&&&&",
"&&&&&&&&*oooo@@@@@@@@@@@ooooooooooo$$$$###########+&&&&&&&&&&&&&",
"****&&&$$oooo@@@@@@@@@@@ooooooooooo$$$$###########+&&&&&&&&&****",
"****&&$$$$$$$$$$$:::::::;;;;;;;;$$$$$$$$$$$$$$$#####&&&&&&&&****",
"****&&$$$$$$$$$$$:::::::;;;;;;;;$$$$$$$$$$$$$$$######&&&&&&&****",
"****&$$$$$$$$$$$$:::::::;;;;;;;;$$$$$$$$$$$$$$$#######&&&&&&****",
"&&&&*$$$$$$$$$$$$:::::::;;;;;;;;$$$$$$$$$$$$$$$#######+*====%%%%",
"&&&&*ooooooooooooooooooooooo@@@@ooooooooooooooooooXXXX.*====%%%%",
"&&&&*ooooooooooooooooooooooo@@@@ooooooooooooooooooXXXX..====%%%%",
"&&&&.ooooooooooooooooooooooo@@@@ooooooooooooooooooXXXX..====%%%%",
"&&&&.ooooooooooooooooooooooo@@@@ooooooooooooooooooXXXX..%%%%&&&&",
"&&&&+####oooo$$$$---$$$$$$$$;;;;:::$$$$$$$$#######+++++++%%%&&&&",
"&&&&+####oooo$$$$---$$$$$$$$;;;;:::$$$$$$$$#######++++++++%%&&&&",
"&&&++####oooo$$$$---$$$$$$$$;;;;:::$$$$$$$$#######++++++++%%&&&&",
"&&&++####oooo$$$$---$$$$$$$$;;;;:::$$$$$$$$#######++++++++&&&&&&",
"&&&OO++++###########oooo$$$$;;;;:::::::oooo####ooooooo.... &&&&&",
"&&OOO++++###########oooo$$$$;;;;:::::::oooo####ooooooo....  &&&&",
"&&OOO++++###########oooo$$$$;;;;:::::::oooo####ooooooo....  &&&&",
"&&OOO++++###########oooo$$$$;;;;:::::::oooo####ooooooo....  &&&&",
"&&+++....$$$$$$$$$$$:::::::::::::::########++++++++++++++++++&&&",
"&&+++....$$$$$$$$$$$:::::::::::::::########++++++++++++++++++&&&",
"&&+++....$$$$$$$$$$$:::::::::::::::########++++++++++++++++++&&&",
"==   ....ooooooooooooooooooo@@@@@@@ooooooooXXXXXXXXXXX....   &&&",
"==   ....ooooooooooooooooooo@@@@@@@ooooooooXXXXXXXXXXX....    &&",
"==   ....ooooooooooooooooooo@@@@@@@ooooooooXXXXXXXXXXX....    &&",
"==   ....ooooooooooooooooooo@@@@@@@ooooooooXXXXXXXXXXX....    &&",
"&&OOOOOOO++++++++#######$$$$;;;;:::::::$$$$$$$$$$$XXXX++++++++&&",
"&&OOOOOOO++++++++#######$$$$;;;;:::::::$$$$$$$$$$$XXXX++++++++&&",
"&&OOOOOOO++++++++#######$$$$;;;;:::::::$$$$$$$$$$$XXXX++++++++&&",
"&&OOOOOOO++++++++#######$$$$;;;;:::::::$$$$$$$$$$$XXXX++++++++&&",
"&&OOOOOOO....ooooooo$$$$$$$$;;;;ooo::::oooo#######++++....++++**",
"&&&OOOOOO....ooooooo$$$$$$$$;;;;ooo::::oooo#######++++....++++**",
"&&&OOOOOO....ooooooo$$$$$$$$;;;;ooo::::oooo#######++++....++++**",
"&&&OOOOOO....ooooooo$$$$$$$$;;;;ooo::::oooo#######++++....++++**",
"****O++++++++#######$$$$:::::::::::::::########+++++++++++++++%%",
"****O++++++++#######$$$$:::::::::::::::########+++++++++++++++%%",
"****O++++++++#######$$$$:::::::::::::::########+++++++++++++++%%",
"****&....ooooooooooo--------oooooooooooooooooooXXX........    %%",
"%%%%*....ooooooooooo--------oooooooooooooooooooXXX........    &&",
"%%%%*....ooooooooooo--------oooooooooooooooooooXXX........   &&&",
"%%%%**...ooooooooooo--------oooooooooooooooooooXXX........   &&&",
"%%%%**+++####oooo$$$----;;;;;;;;:::::::$$$$####++++++++++++++&&&",
"&&&&%%+++####oooo$$$----;;;;;;;;:::::::$$$$####++++++++++++++&&&",
"&&&&%%%++####oooo$$$----;;;;;;;;:::::::$$$$####++++++++++++++&&&",
"&&&&%%%%+####oooo$$$----;;;;;;;;:::::::$$$$####+++++++++++++&&&&",
"&&&&%%%%.####$$$$$$$----oooo@@@@@@@oooo$$$$$$$$XXX####++++++&&&&",
"&&&&&&&&%####$$$$$$$----oooo@@@@@@@oooo$$$$$$$$XXX####+++++&****",
"&&&&&&&&%####$$$$$$$----oooo@@@@@@@oooo$$$$$$$$XXX####+++++&****",
"&&&&&&&&%%###$$$$$$$----oooo@@@@@@@oooo$$$$$$$$XXX####++++&&****",
"&&&&&&&&%%%######$$$$$$$;;;;;;;;:::::::::::::::$$$$$$$....&&****",
"****====&&&######$$$$$$$;;;;;;;;:::::::::::::::$$$$$$$...===%%%%",
"****====&&&&#####$$$$$$$;;;;;;;;:::::::::::::::$$$$$$$...===%%%%",
"****====&&&&&&&&#$$$$$$$;;;;;;;;:::::::::::::::$$$$$$$..====%%%%",
"****====&&&&&&&&***ooooooooooooooooooooooooooooooo......====%%%%",
"&&&&%%%%====****&&&&&ooooooooooooooooooooooooooooo.....&%%%%&&&&",
"&&&&%%%%====****&&&&&&&&oooooooooooooooooooooooooo...&&&%%%%&&&&",
"&&&&%%%%====****&&&&&&&&&&&&%%%%&&&&&&&&****====****&&&&%%%%&&&&",
"&&&&%%%%====****&&&&&&&&&&&&%%%%&&&&&&&&****====****&&&&%%%%&&&&"
};
