/* XPM */
static char *f5f5720f774f4129d57b9723e691a14cxaYdc4D1xSW9xaDd[] = {
/* columns rows colors chars-per-pixel */
"32 32 9 1 ",
"  c None",
". c #DB9421",
"X c #F9A825",
"o c #E3D462",
"O c #FFF176",
"+ c gray63",
"@ c #FFF394",
"# c gray83",
"$ c white",
/* pixels */
"                                ",
"                                ",
"                                ",
"                                ",
"                                ",
"                                ",
"                                ",
"              OOOOO             ",
"           @@OOOOO$$XX          ",
"           @$OOOOO$#oX          ",
"         @@@$$OOOo##XXXX        ",
"         @@O$$OOoo##oXXX        ",
"         OOOO$$ooX##XXXX        ",
"        OOOOO$#oX###XXXX.       ",
"        OOOOO##oo###XXX..       ",
"        OOOO###Xo###XX...       ",
"        OOOo###oX###XX...       ",
"        Oooo###XX###XX...       ",
"         ooXo##XXX##X...        ",
"         ooXo##XXX##....        ",
"         oooX##XXX#+++..        ",
"           X##XX...++++         ",
"           X#+......++          ",
"             +.....             ",
"                                ",
"                                ",
"                                ",
"                                ",
"                                ",
"                                ",
"                                ",
"                                "
};
