/* XPM */
static char *_94fdac7898b4f7ed60bae0d63abccbbF8JgX0juSYAhpuy8[] = {
/* columns rows colors chars-per-pixel */
"32 32 3 1 ",
"  c #4F7A36",
". c #589137",
"X c #65AB3F",
/* pixels */
"  XXXXX..XXXXXXXXXXXX..  ..XXXXX",
"  XXXXX..XXXXXXXXXXXX..  ..XXXXX",
"XXXXXXX..  ...XXXXXXXXXXXXXXXXXX",
"XXXXXXX..  ...XXXXXXXXXXXXXXXXXX",
"XXXXXXX..  ...XXXXXXXXXXXXXXXXXX",
"XX...XXXXXX...XXXX...XXXXXXXXXXX",
"XX...XXXXXX...XXXX...XXXXXXXXXXX",
"XX...XX  XXXXXXXXX...XX  XX...XX",
"XX...XX  XXXXXXXXX...XX  XX...XX",
"XXXXXXX  XXXXXXXXXXXXXX  XX...XX",
"XXXXXXX  XXXXXXXXXXXXXX  XX...XX",
"..XXXXXXXXXXXX..  ...XXXXXXXXXXX",
"..XXXXXXXXXXXX..  ...XXXXXXXXXXX",
"..XXXXXXXXXXXX..  ...XXXXXXXXXXX",
"..XXXXX..XXXXX..  ...XXXXXXXXXXX",
"..XXXXX..XXXXX..  ...XXXXXXXXXXX",
"XXXXXXX..XXXXXXXXXXXXXX..XXXXXXX",
"XXXXXXX..XXXXXXXXXXXXXX..XXXXXXX",
"XXXXXXXXXXXXXX..XXXXXXX..XXXXX..",
"XXXXXXXXXXXXXX..XXXXXXX..XXXXX..",
"XXXXXXXXXXXXXX..XXXXXXX..XXXXX..",
"XX   XXXX..   ..XXXXXXXXXXXXXX..",
"XX   XXXX..   ..XXXXXXXXXXXXXX..",
"XX   XXXX..XXXXXXX...XXXX  XXXXX",
"XX   XXXX..XXXXXXX...XXXX  XXXXX",
"XXXXX..XXXXXXXXXXX...XXXX  XXXXX",
"XXXXX..XXXXXXXXXXX...XXXX  XXXXX",
"XXXXX..XXXXXXX  XXXXXXXXXXXXXX..",
"XXXXX..XXXXXXX  XXXXXXXXXXXXXX..",
"XXXXX..XXXXXXX  XXXXXXXXXXXXXX..",
"  XXXXXXXXXXXX  XXXXX..  ..XXX..",
"  XXXXXXXXXXXX  XXXXX..  ..XXX.."
};
