/* XPM */
static char *_f263ed4180c4334cfb87c1ea61c9b2bYHelNOscCN3aSY6U[] = {
/* columns rows colors chars-per-pixel */
"32 32 9 1 ",
"  c None",
". c #8D5342",
"X c #AC7048",
"o c #AE704A",
"O c #B0704C",
"+ c #44854E",
"@ c #65A858",
"# c #C4925D",
"$ c #8EC96C",
/* pixels */
"                                ",
"                 $$             ",
"               $$@@@@           ",
"               $$@@@@           ",
"        $$$  $$@@@@  $$$$$      ",
"      $$@@@@@@@$$@@@@$$$@@@@    ",
"      $$@@@@@@@$$@@@@$$$@@@@    ",
"      $$@@@@@$$++++@@+++@@      ",
"           $$@@@@++++$$$@@@@    ",
"           $$@@@@++++$$$@@@@    ",
"        $$$$$$$++@@@@+++$$@@@@  ",
"  $$$$     $$XX$$@@@@   ++$$++  ",
"  $$$$     $$XX$$@@@@   ++$$++  ",
"    $$@@       ..$$@@@@@..      ",
"  $$@@@@@@@++  ++$$@@@@@  @@    ",
"  $$@@@@@@@++  ++$$@@@@@  @@    ",
"  $$$$..+++++@@  ..$$+++$$@@    ",
"    ++++$$$@@@@@@..++   $$$$@@  ",
"    ++++$$$@@@@@@..++   $$$$@@  ",
"        $$$++$$......   $$..++  ",
"           $$++XX.........      ",
"           $$++XX.........      ",
"               ##OO..           ",
"               ##OO.....        ",
"               ##OO.....        ",
"             ##OO##OO...        ",
"        OOOOO..OO##..OOOOOOO    ",
"        OOOOO..OO##..OOOOOOO    ",
"               ..##             ",
"                 OO             ",
"                 OO             ",
"                                "
};
