/* XPM */
static char *_9479efa1c7343e7b6217db5da778923ausKkTHHs56EKBg3[] = {
/* columns rows colors chars-per-pixel */
"64 64 38 1 ",
"  c #3C0F1E",
". c #594320",
"X c #5F4A29",
"o c #614D2B",
"O c #665131",
"+ c #655337",
"@ c #6F5B38",
"# c #715E3C",
"$ c #715E40",
"% c #746141",
"& c #746243",
"* c #E33E3B",
"= c #AD7D30",
"- c #C0602B",
"; c #70C436",
": c #FE9F00",
"> c #BD8F44",
", c #C99D57",
"< c #CFA35B",
"1 c #D4A257",
"2 c #EEA44A",
"3 c #D9AC68",
"4 c #D6B175",
"5 c #EBC178",
"6 c #F0C87F",
"7 c #477F91",
"8 c #E55A84",
"9 c #4C8FA6",
"0 c #509EBA",
"q c #209DFF",
"w c #61B0C1",
"e c #F0C887",
"r c #F7CF8B",
"t c #F7D18F",
"y c #FFAAC1",
"u c #ADD6DE",
"i c #E6F9FC",
"p c white",
/* pixels */
"9999999999999000099999997777777777777000999999999999777777777777",
"99ii999999999000099999997777777777777000999999999999777777777777",
"99iiiu9999999000099999997777776655555550999999999999777777777777",
"999iiw999999900009999999tttt666655555555559999999999uuu777777777",
"9wwuww9990000999999eeeeetttt666655555555555559999999uuii99999999",
"9wwu9999900009eeeeeeeeeetttt6666555555555555555999999uiiwu999999",
"9ww99999900<<44444444444<<<<<<<<<<<6666555555555559999iiwu999999",
"999999999<<<<44444444444<<<<<<<<<<<66665555555555539999999999999",
"000099966<<<<44444444444<<<<<<<<<<<66665555555555539999999900000",
"00009966666666666tttttttrrrrrrrr66666666666666655555999uu9900000",
"00009966666666666tttttttrrrrrrrr66666666666666655555599uuu900000",
"00009666666666666tttttttrrrr         666666666655555559uuu9iiu00",
"99990666666666666tttttttr   yyyyyyy88    666666555555530wwwiii77",
"99990<<<<<<<<<<<<<<<<<<<<   yyyyyyy88    <<<<<<<<<,,,,>0wwwuii77",
"99990<<<<<<<<<<<<<<<<<<< yyyp**yyyyyy8888 <<<<<<<<,,,,>>wwwuu777",
"9999><<<<<<<<<<<<<<<<<< yyppppyyyyyy**y888  <<<<<<,,,,>>wwwwuu77",
"9999><<<<<<<<<<<<<<<<< yppp::yyyyyyyypyyq888 <<<<<,,,,>>77wwuu99",
"999935555<<<<6666eee6 ypp:pyyy*yyy;;yyyyqy888 55553333333779uu99",
"999935555<<<<6666eee yypy:yy888888888yyyyyy888 5553333333379uu99",
"999335555<<<<6666e  yy:pyyy888     888yyyqqy88 5553333333379uu99",
"999335555<<<<6666e  yp:pyyy88       88yyyqqy88 5553333333399uu99",
"999113333555555555yyyyppyy88 ------- 8yypyyyy88  <<<<<>>>>=99999",
"991113333555555555yyyyppyy88 ------- 8yypyyyy88  <<<<<>>>>==9999",
"991113333555555555yyyppy*88 --     -- 8ypyyyy88  <<<<<>>>>==9999",
"99111333355555555 yypyyyy88  rrrtttt  88ppyyy8888<<<<<>>>>==9999",
"99333>>>>66666666 yypp**y88 ttttttt55 8yp**yy8888333333333333999",
"99333>>>>66666666 yypp**y88 ttttttt55 8yp**yy8888333333333333999",
"ww333>>>>66666666 yyypyyy88 ttttttt55 88pyyyy8888333333333333977",
"ww===>>>><<<<<<<< 88ypyyy88 44444++oo 8ypyyyy8888,,,,,>>>>===977",
"ww===>>>><<<<<<<< 88yppyy88 44+++++oo yyyyyy888  ,,,,,>>>>====77",
"ww===>>>><<<<<<<< 88yppyy88 4++++++oo yyyyyy888  ,,,,,>>>>====77",
"ww===>>>><<<<<<<< 22 8ypqpyy88     yyyyyyyyy8 ---X,,,,>>>>====77",
"99111111133333333 22 88ypp**yyyyyyyyyyyyqy888 ---#X,,,3333333377",
"991111111333333335222 88yyppy::yyyyyqqyyy888 ----#X,,,3333333377",
"991111111333333335222 88yyppy::yyyyyqqyyy888 ----#X,,,3333333377",
"991111111333333335--22 88yyyyyyyyyyyyyyy88 ----  #X,,,3333333377",
"991111111>>>><<<<<--22 88yyyyyyyyyyyyyyy88 ----  @O333>>>>333377",
"997111111>>>><<<<<<< -22     88888888     ---- @@@O333>>>>333377",
"997111111>>>><<<<<<< -22     88888888     ---- @@@O333>>>>333377",
"997111111>>>><<<<<<<6 --22222  88888 22222--- @@@@O333>>>>333377",
"077713333333355555556# ---22222     2222---- @@OOOO3333333333377",
"w77713333333355555556### ---222222222----   @@@OOOO3333333333377",
"w77713333333355555556###%   ----------   5@@@@@OOOO3333333333377",
"w7777>>>><<<<<<<<<<<e$$$$   ----------   <oooooXXX.>>>>>>>====77",
"w7777>>>><<<<<<<<<<<e$$$$$$$ooo<<<<<<<<<<<oooooXXX.>>>>>>>====79",
"77777>>>><<<<<<<<<<<e$$$$$$$oooo<<<<<<<<oooooooXXX>>>>>>>>===779",
"777777>>><<<<<<<<<<<eee$$$$$oooooooooooooooooooXXX>>>>>>>>===779",
"9977773335555<<<<666eeee%%%%%%%%%%%%%%%####@@@@OO333333333333779",
"99ww773335555<<<<666eeeer%%%%%%%%%%%%%%####@@@@OO333333333333779",
"99www77335555<<<<666eeeer%%%%%%%%%%%%%%####@@@@33333333333333799",
"99wwww7735555<<<<666eeeerrr%%%%%%%%%%%%####@@@533333333333337799",
"999uwww7>55556666666eeee<<<<4++++++oooo######66,,,55553333337700",
"999uwww7755556666666eeee<<<<4444444<<<<66666666,,,55553333377700",
"999uuu77755556666666eeee<<<<4444444<<<<66666666,,,5555333337ww00",
"9999uiii775556666666eeee<<<<4444444<<<<66666666,,,5555333377ww00",
"0000wiiiu775555556666666rrrrrrrrttttttttttttttt6666666>>>>77ww77",
"0000wiiiu775555556666666rrrrrrrrttttttttttttttt6666666>>>7ww7777",
"0000wwuuu777555556666666rrrrrrrrttttttttttttttt6666666>>>7wii777",
"0000wwwwww7ww77756666666rrrrrrrrttttttttttttttt6666666>>77wii777",
"0000wwwwwwwww777777<<<<<<<<<<<<<<<<<<<<<<<<<<<<<<<>>>>>>77uii777",
"99997777www7777777777<<<<<<<<<<<<<<<<<<<<<<<<<<<<<>>>>>777uuu999",
"999977777wwww00007777777<<<<<<<<<<<<<<<<<<<<<<<<<<>>>77777uuu999",
"999977777wwww000097777777799777777777777777777777777977777799999",
"999977777wwww000099999999999777777999977700777777000999977799999"
};
