/* XPM */
static char *_bada5b8def3411ba3b29a778d002664jjhE4BNSOeQ1YaT9[] = {
/* columns rows colors chars-per-pixel */
"64 64 41 1 ",
"  c #151324",
". c #471D1A",
"X c #452C34",
"o c #5A3637",
"O c #594320",
"+ c #5F4A29",
"@ c #614D2B",
"# c #665131",
"$ c #6F5B38",
"% c #715E3C",
"& c #715E40",
"* c #746141",
"= c #B7203D",
"- c #AD7D30",
"; c #845448",
": c #FE5056",
"> c #FD9B34",
", c #BD8F44",
"< c #C99D57",
"1 c #EA8E5D",
"2 c #CFA35B",
"3 c #D4A257",
"4 c #D9AC68",
"5 c #D6B175",
"6 c #FFD057",
"7 c #EBC178",
"8 c #F0C87F",
"9 c #477F91",
"0 c #4C8FA6",
"q c #509EBA",
"w c #61B0C1",
"e c #8198AB",
"r c #F0C887",
"t c #F7CF8B",
"y c #F7D18F",
"u c #F8CEA2",
"i c #ADD6DE",
"p c #CEE0D9",
"a c #E6F9FC",
"s c #F1F4F7",
"d c white",
/* pixels */
"0000000000000qqqq00000009999999999999qqq000000000000999999999999",
"00aa000000wwwqqqq000000099             q000000000000999999999999",
"00aaai0wwwwwwqqqq000000099             q000000000i00999999999999",
"000aawiiw0000qqqq0000000  ;;;;;;;;;;;oo  70000000iiiiii999999999",
"0wwiiii00qqqq000000rrr  ;;;;dddddddddoooo  77000000iiiaai0000000",
"0wwiiiss0qqqq0rrrrrrrr  ;;;;dddddddddoooo  7777000000iaaiiiii000",
"0wwiis000qq22555555555  ;;dddd dd  ddddoo  77777770000iiiiiiiii0",
"00iii00002222555555555  ;;dddd dd  ddddoo  77777774000iiiiii0000",
"qqiq0008822225555555  ;;oooodddddddddoooooo  77777400000000qqqqq",
"qqiq0088888888888yyy  ;;oooodddddddddoooooo  8877777000ii00qqqqq",
"qqqq008888888888    ooooooXXXXdddddXXXXoooooo      7700iii0qqqqq",
"qqqq0888888888  ooooooooXXXXddXXXXXddXXXXXXooooooXX  70iii0aaiqq",
"0000q888888888  ooooooooXXXXddXXXXXddXXXXXXooooooXX  74qwwwaaa99",
"0000q222222222  XXXXXXXXXXXXXXXXXXX    XXXXXXXXXXXX  <,qwwwia999",
"0000q222222222  XXXXXXXXXXXXXXXXXXX    XXXXXXXXXXXX  <,,wwwii999",
"0000,22222222222  XXXX  ==:::::::::======  XXXXXX  <<<,,wwwwii99",
"0000,22222222222  XXXX  ==:::::::::======  XXXXXX  <<<,,99wwii00",
"00004777722228888r    ==:::::::::::::::====      74444444990ii00",
"00004777722228888rrr88  uuuuuuuuu          ==777774444444490ii00",
"00044777722228888rrr88  uuuuuuuuu          ==777774444444490ii00",
"00044777722228888rrruuuuuuuu  uuuuu      uu::::::==444444400ii00",
"00033444477777777777uuuuuuuu  uuuuu      uu::::::==222,,,,-00000",
"0033344447ee77777777uuuuuuuu  uuuuu      uu========222,,,,--0000",
"0033344447ee77777777uuuuuuuu  uuuuu      uu========222,,,,--0000",
"00333444ppee777777772211uuuuuuuuuuuuu  uu11======22222,,,,--0000",
"00444,,,ppee88888888yy11uuuu         uuuu11==::::==4444444444000",
"00444,,,ppee88888888yy11uuuu         uuuu11==::::==4444444444000",
"ww444,,,ppee88888888yyyy11    uuuuu    117744======4444444444099",
"ww---,,,ppee22222222222211    uuuuu    1122<<======<<<,,,,---099",
"ww---,,,ppee22222222222222  111111111  2222<<<<<<<<<<<,,,,----99",
"ww---,,,eeppee2222222222oooopppppppppoooo22<<<<<<<<<<<,,,,----99",
"ww---,,,eeppee2222222222oooopppppppppoooo22<<<<<++++<<,,,,----99",
"0033333334eeppee477777;;;;;;ddddddddd;;;;;;888%%%%++<<4444444499",
"0033333334eeppee477777;;;;;;ddddddddd;;;;;;%%%%%%%++++4444444499",
"003333333444ee;;4777;;;;XX;;ddpppddpp;;XX;;;;%%%%%++++##44444499",
"003333333444ee;;4777;;;;XX;;ddpppddpp;;XX;;;;%%%%%++++####444499",
"003333333,,,,2;;22;;;;XXXX;;ppppppppp;;XXXX;;;;$$$####OOOO444499",
"009333333,,,11uu11ppoo88XX;;  66666..;;XX@@oodddd$####OOOO444499",
"009333333,,,11uu11ppoo88XX;;  66666..;;XX@@oodddd$####O,,,444499",
"009333333,,,111111pppp88XX    >  >>    XX@@pppppp$####O,,,444499",
"q99934444444111111pppp88XX    >  >>    XX$$pppppp#####4444444499",
"w99934444444111111pp8888XX;;..>>>>>..;;XX$$111111####44444444499",
"w99934444444111111pp8888XX;;..>>>>>..;;XX$$111111##4444444444499",
"w9999,,,,22222;;2222rrrrXX  .........  XX@@111111+,,,,,,,,----99",
"w9999,,,,22222;;2222rrXX    ..     ..    XX@@@@++<,,,,,,,,----90",
"99999,,,,22222;;2222rrXX    ..     ..    XX@@@@+<<,,,,,,,,---990",
"999999,,,22222;;2222rr  ......@@@@@......  @@@@<<<,,,,,,,,---990",
"00999944477772;;2888r&  ......*****......  $$$744444444444444990",
"00ss9944477772;;288%&&&&;;;;;;****y;;;;;;%%$$$744444444444444990",
"00ssw994477772;;2%%%&&rr;;;;;;**yyy;;;;;;%%$$7744444444444444900",
"00isii99477772oo@%%%rrrrtt    *tyyy    %%%%$$7744444444444449900",
"000iiii9,77778oo%%88rr        55555        8888<<<777744444499qq",
"000iiii9977778oo8888rr        55555        8888<<<777744444999qq",
"000iii99977778888888rrrr22225555555222288888888<<<7777444449wwqq",
"0000iaaa997778888888rrrr22225555555222288888888<<<7777444499wwqq",
"qqqqwaaai997777778888888ttttttttyyyyyyyyyyyyyyy8888888,,,,99ww99",
"qqqqwaaai997777778888888ttttttttyyyyyyyyyyyyyyy8888888,,,9ww9999",
"qqqqwwiii999777778888888ttttttttyyyyyyyyyyyyyyy8888888,,,9waa999",
"qqqqwwwwww9ww99978888888ttttttttyyyyyyyyyyyyyyy8888888,,99waa9ii",
"qqqqwwwwwwwww9999992222222222222222222222222222222,,,,,,99isaii9",
"00009999www999999999922222222222222222222222222222,,,,,999ssii00",
"000099999wwwwqqqq999999922222222222222222222222222,,,99999iiii00",
"000099999wwwwqqqq099999999009999999999999999999999990999999i0000",
"000099999wwwwqqqq000000000009999990000999qq999999qqq000099900000"
};
