/* XPM */
static char *_f26ffc769f244d1a7cd50071827a918vDULwax7FK7XaXtm[] = {
/* columns rows colors chars-per-pixel */
"64 64 16 1 ",
"  c black",
". c #1C172C",
"X c gray19",
"o c #26284A",
"O c #28365E",
"+ c #2E5674",
"@ c gray47",
"# c #477F91",
"$ c #4C8FA6",
"% c #5690A0",
"& c #509EBA",
"* c #61B0C1",
"= c #7BBBC8",
"- c #858AC6",
"; c #ADD6DE",
": c #E6F9FC",
/* pixels */
"$$$$$$$$$$$$&&&&$$$$$$$::;;;=======#&&&&$$$$$$$$$$$$############",
"$$$$$$$$$$$$&&&&$$$$$$$::;;;=##====#&&&&$$$$$$$$$$$$############",
"$$$$$$$$$$$$&&&&$$$$$$$$############&&&&$$$$$$$$$$$$############",
"$$$$$$$$$$$$&&&&$$$$$$$$###########;;&&&$$$$$$$$$$$$############",
"$$$$$$$$&&&&$;;$$$$$@@@@@@@@@@@@@@@@@@@@@@@$$$$$$$$$$$$$$$$$$$$$",
"$$$$$$$$&&&&;;;;;;;;@%%%---------------%%%@$$$$$$$$$$$$$$$$$$$$$",
"$$$$$$$===&&;;;;;;;;@%%%---------------%%%@$$$$$$$:::$$$$$$$$$$$",
"$$$$$$$===&&$$$@@@@@@%%%---------------%%%@@@@@@$=::::$$$$$$$$$$",
"&&&&$;;==***$$$@%%%%%%%%---------------%%%%%%%%@$===::$$$$$$&&&&",
"&&&&;;;=****$$$@%%%%%%%%---------------%%%%%%%%@$$==:::$$$$$&&&&",
"&&&:;;;$****@@@@%%%%%%%%---------------%%%%%%%%@@@@==::$$$$$&&&&",
"&&&:::=$****@%%%%%%%%------%%%%%%%%%%%%%%%%%%%%%%%@==:::$;;$&&&&",
"$$:::=&&&&&&@%%%%%%%%------%%%%%%%%%%%%%%%%%%%%%%%@$==::=;;*####",
"$$:::&&&&XXXX%%%%%%%%------%%%%%%%%%%%%%%%%%%%%%%%XXXX:::;;;####",
"$$$$&&&&&X+++%%%--------%%%%%%+++++++++++++++++%%%+++X&:::;;####",
"$$$$&&&&&X+++%%%--------%%%%%%+++++++++++++++++%%%+++X&&::;;####",
"$==$$$$XXX+++%%%--------%%%%%%+++++++++++++++++%%%+++XXX#=;;$$$$",
"$==$$$$X+++++%%%---%%%%%%%%++++++OOOOOOOOO+++++++++++++X#=;;;$$$",
"===$$$$X+++++%%%---%%%%%%%%++++++OOOOOOOOO+++++++++++++X##=;;$$$",
"==$$$$$X+++++------%%++++++++++++       OOOOOOO++++++++X##=;;;$$",
"==$$$$$X+++++------%%++++++++++++ .....OOOOOOOO++++++++X$$$=;;$$",
"==$$XXXX+++++------%%++++++++++++ .....OOOOOOOO++++++++XXXXX==$$",
"==$$X+++++------%%%%%++++++       .....OOOOOOOOOOO+++++++++X===$",
"==$$X+++++------%%%%%++++++ ...........OOOOOOOOOOO+++++++++X$==$",
"==$$X+++++------%%%%%+++   ...         OOOOOOOOOOO+++++++++X$==$",
"==$$X+++++------%%%%%+++ .... ---------oooooOOOOOO+++++++++X$$$$",
"=$$$X+++++------%%%%%+++ .... ---------oooooOOOOOO+++++++++X$$$$",
"=$$$X+++++------%%%%%+++ .... ---------oooooOOOOOO+++++++++X$$$$",
"****X++++++++---%%%%%+++ ..   --     -----oooooOOOOOO++++++X$$$$",
"****X++++++++---%%%%%+++ .. ---- ... -----oooooOOOOOO++++++X$$$$",
"****X++++++++---%%%%%+++ . ---   ... -----oooooOOOOOO++++++X$$$$",
"****X++++++++---%%%%%+++ .    ..... %%%-----oooOOOOOO++++++X$$$$",
";;$$X++++++++---%%%%%+++ .......... %%%-----oooOOOOOO++++++X$$$$",
";;$$X++++++++---%%%%%+++ .......    %%%-----oooOOOOOO++++++X$$$$",
";;$$X+++OO+++------%%++++  ..... +++%%%---oooooOOOOOO++++++X$$$$",
";=$$X+++OO+++------%%+++++ ..... +++%%%---oooooOOOOOO++++++X$$$$",
";=$$X+++OO+++------%%+++++       +++%%%---oooooOOOOOO++++++X&&&&",
"==$$ OOOOOOOO+++---%%%%%++++++++++++%%%ooooooooOOOOOO++++++X&&&&",
"==$$ OOOOOOOO+++---%%%%%++++++++++++%%%ooooooooOOOOOO++++++X&&&&",
"==$$ OOOOOOOO+++---%%%%%++++++++++++%%%ooooooooOOOOOO++++++X&&&&",
"==&& OOOOOOOOOOO---%%%%%%%%%%%%%%%%%%%%ooooooooOOOOOOOOOOOO ####",
"==&& OOOOOOOOOOO---%%%%%%%%%%%%%%%%%%%%ooooooooOOOOOOOOOOOO ####",
"==&& OOOOOOOOOOO---%%%%%%%%%%%%%%%%%%%%ooooooooOOOOOOOOOOOO ####",
"&&&&    OOOOOOOO--------%%%%%%%%%---oooooooooooOOOOOOOO     =###",
"####&&& OOOOOOOO--------%%%%%%%%%---oooooooooooOOOOOOOO ##===$$$",
"####&&& OOOOOOOO--------%%%%%%%%%---oooooooooooOOOOOOOO #:;;;$$$",
"####&&& OOOOOoooooo--------------oooooooooooOOOOOOOOOOO ::;;;$$$",
"####&&& OOOOOoooooo--------------oooooooooooOOOOOOOOOOO :;;;$$$$",
"$$$$###   OOOooooooooooooooooooooooooooooooooooOOOOOO   :;;$$$$$",
"$$$$####& OOOooooooooooooooooooooooooooooooooooOOOOOO $==;;$$$$$",
"$$$$####& OOOooooooooooooooooooooooooooooooooooOOOOOO ====$$$$$$",
"$$$$#==#&    OOOoooooooooooooooooooooooooooooooooo    ===$$$$$$$",
"$$$$$==$#### OOOoooooooooooooooooooooooooooooooooo $$$$$$$$$&&&&",
"$$$$$==::### OOOoooooooooooooooooooooooooooooooooo $$$$$$$$$&&&&",
"$$$$$==::::#    ooooooooooooooooooooooooooooooo    ==$$$$$$$&&&&",
"$$$$$===::::*** ooooooooooooooooooooooooooooooo =;;==$$$$$$$&&&&",
"&&&&**=;;:::$$$ ooooooooooooooooooooooooooooooo ;;;=********####",
"&&&&***;;;==$$$      ooooooooooooooooooooo      ;;;$********####",
"&&&&***;;;;=::$$&&&& ooooooooooooooooooooo $$$$;;$$$********####",
"&&&&****;;;;:::$&&&& ooooooooooooooooooooo $$$$$$$$$********####",
"$$$$####**;;;;:::$$$                       &****&&&&$$$$####$$$$",
"$$$$####***;;;;::$$$$$$$$$$$####$$;;;;$$&&&&****&&&&$$$$####$$$$",
"$$$$####****&;;;$$$$$$$$$$$$####$$;;;;$$&&&&****&&&&$$$$####$$$$",
"$$$$####****&;;;;;$$$$$$$$$$####$$$$$$$$&&&&****&&&&$$$$####$$$$"
};
