/* XPM */
static char *_903aa9e46f64ecdf6952f67d2052b340C65Cr1XMxKxmhZd[] = {
/* columns rows colors chars-per-pixel */
"64 64 12 1 ",
"  c #2C2342",
". c #3C3157",
"X c #584D75",
"o c #477F91",
"O c #7C719C",
"+ c #4C8FA6",
"@ c #509EBA",
"# c #61B0C1",
"$ c #7BBBC8",
"% c #9488B8",
"& c #ADD6DE",
"* c #F1F4F7",
/* pixels */
"++++++++++++@@@@++++++++oooooooooooo@@@@++++++++++++oooooooooooo",
"++++++++++++@@@@++++++++oooooooooooo@@@@++++++++++++oooooooooooo",
"++++++++++++@@@@++++++++oooooooooooo@@@@++++++++++++oooooooooooo",
"++++++++++++@@@@++++++++oooooooooooo@@@@++++++++++++oooooooooooo",
"++++++++@@@@++++++++++++++++++++++++@@@@++++++++++++++++++++++++",
"++++++++@@@@++++++++++++++++++++++++@@@@++++++++++++++++++++++++",
"++++++++@@@@++++++++++++++++++++++++@@@@++++++++++++++++++++++++",
"++++++++@@@@++++++++++++++++++++++++@@@@++++++++++++++++++++++++",
"@@@@++++####++++++++++++@@@@####++++$$$$++++++++++++++++++++@@@@",
"@@@@++++####++++++++++++@@@@####++++$$$$++++++++++++++++++++@@@@",
"@@@@++++####++++++++++++@@@@#    +++$$$$++++++++++++++++++++@@@@",
"@@@@++++####++++++++++++@@@@#    +++$$$$++++++++++++++++++++@@@@",
"++++@@@@@@@@####$$$$####oooo %%%%   ####++++++++++++@@@@####oooo",
"++++@@@@@@@@####$$$$####oooo %%%%   ####++++++++++++@@@@####oooo",
"++++@@@@@@@@####$$$$####oo  OOO%%OOO    ++++++++++++@@@@####oooo",
"++++@@@@@@@@####$$$$####oo  OOO%%OOO    ++++++++++++@@@@####oooo",
"++++++++++++@@@@++++++++  %%O%%%%%%OXX%%  ++++++####oooooooo++++",
"++++++++++++@@@@++++++++  %%O%%%%%%OXX%%  ++++++####oooooooo++++",
"++++++++++++@@@@++++++  %%OO%%%%%..O..%%OO  ++++####oooooooo++++",
"++++++++++++@@@@++++++  %%OO%%%%%..O..%%OO  ++++####oooooooo++++",
"++++++++++++@@@@++++  %%%%%%%%%..OO.%%%%OO  ####oooo++++++++++++",
"++++++++++++@@@@++++  %%%%%%%%%..OO.%%%%OO  ####oooo++++++++++++",
"++++++++++++@@@@+++ %%....%%OOOOO..%%%%%%%OO ###oooo++++++++++++",
"++++++++++++@@@@+++ %%....%%OOOOO..%%%%%%%OO ###oooo++++++++++++",
"++++++++####oooo@  %..OOOOOOOXXXX..OOO%%%%%% ###++++++++++++++++",
"+++++++$$&&#oooo@  %..OOOOOOOXXXX..OOO%%%%%% ###++++++++++++++++",
"++++++$$$&*#ooo  %%OOOOOXXXXXXX....XOO%%%%%%O  #++++++++++++++++",
"++++++$$$$*#ooo  %%OOOOOXXXXXXX....XOO%%%%%%O  #++++++++++++++++",
"######$$$$*o+  %%..OXXXXXX   ......XOO%%%%..O  ++&&&++++++++++++",
"##$$$&&&$$$o+  %%..OXXXXXX   ......XOO%%%%..O  ++&&&&&&&++++++++",
"##$$$&&&$$oo+  %%OOXXX..  XXX    ...OO....OOO  ++&&&**&&&+++++++",
"##$$&&$#oooo+  %%OOXXX..  XXX    ...OO....OOO  +++$&&$***$$+++++",
"++$$&**oooo  %%XXXX ..  XX%%%XXXX  .XXOOOOOO.%%  +$$$$$***$+++++",
"++$$**&ooo OO..XX  .  XXXX%%O%%%%%% XXXXXX  %%%%%    +$$$$*+++++",
"++++*ooooo OO..XX  .  XXXX%%O%%%%%% XXXXXX  %%%%%    +$$$$**++++",
"++++*ooo  X..XXXXXX XX%%OOXX%%%%%%% ....  ..%..%%%%OO +$$$$+++++",
"++++++++  X..XXXXXX XX%%OOXX%%%%%%% ....  ..%..%%%%OO +$$$$+@@@@",
"+++++++o  XXXXXXX  X%%%%%%OOXOO%%OOO  ..  XXXOO..%%OO ++++++@@@@",
"+++++++o  XXXXXXX  X%%%%%%OOXOO%%OOO  ..  XXXOO..%%OO oo++++@@@@",
"+++++++o  XXX....XX%%%%%%%%%X....OOX  ....XXXXXOOOOOOO  o+++@@@@",
"@@@@++oo  XXX....XX%%%%%%%%%X....OOX  ....XXXXXOOOOOOO  o###oooo",
"@@&&++oo  X......  %OO%%%%..%%%OO..%%%    .....XXXXXXX  oo##oooo",
"$$**$+oo  X......  %OO%%%%..%%%OO..%%%    .....XXXXXXX  oo#&&&oo",
"$$***+oo  .....  %%OOO%%..%%%%%%%OO.%%%%%%     XX.....    $&&&oo",
"$$$&**oo  .....  %%OOO%%..%%%%%%%OO.%%%%%%     XX.....    $**$++",
"$$$&&*@ooo       ..OXXXX..XXO%%OOXX.%%OO%%OOOXX  ..   ooo$$*$$++",
"o$$&**$@oo       ..OXXXX..XXO%%OOXX.%%OO%%OOOXX  ..   ooo$$$$$++",
"ooo$****ooooooooo  ...XX..XXXXXXXXX.XXXXOOXXXXX..  ooooooooo++++",
"+++$&&**@@ooo&&oo  ...XX..XXXXXXXXX.XXXXOOXXXXX..  oo++$$$$$++++",
"+++$&&*o@@oo+&&*ooo   ......X...........XX.......  o+++$$$$$++++",
"+++$$$$o@@@@+++&*oo   ......X...........XX.......  o+++$$$$$++++",
"++++o$$&&&@@+++&&+oooo      ...                  oo++++$$$$$++++",
"+++++$$&&&oo####+++ooo      ...                  o++++++++++@@@@",
"+++++$$$$$oo####++++oooooooo   ooooooooooooooooo++++++++++++@@@@",
"+++++$$$$$oo####+++++++ooooo   ooooooooo&&o&&&&$+&&*++++++++@@@@",
"++++++++oooo####++++++++++oooooo@@@@oooo&&&&&&&&&&**++++++++@@@@",
"@@@@####++++++++@@$$$$######oo@@oooo++++&&&&*******$########oooo",
"@@@@####++++++++@@$$$$######@@@@oooo++++$$$*$****$$$########oooo",
"@@@@####++++++++@@&&&$$$$$##@@@@oooo++++$$$$$$$$$$$$########oooo",
"@@@@####++++++++@@&&&&&$$****@@@oooo++++++++++++++++########oooo",
"++++oooo####@@@@++$$$&&&*&++***o++++++++@@@@####@@@@++++oooo++++",
"++++oooo####@@@@++++++$&&&++oooo++++++++@@@@####@@@@+$$$$ooo++++",
"++++oooo####@@@@++++++++++++oooo++++++++@@@@####@@@@+$$$$ooo++++",
"++++oooo####@@@@++++++++++++oooo++++++++@@@@####@@@@+$$$$ooo++++"
};
