/* XPM */
static char *_71ca8dfd6fe49a5e77250ea431a4e1cAc3tzaRqJuIdD5jV[] = {
/* columns rows colors chars-per-pixel */
"16 16 9 1 ",
"  c None",
". c #E3AA0E",
"X c #D6C804",
"o c #FFC20E",
"O c #EDD500",
"+ c #FFF200",
"@ c #FFCD45",
"# c gray95",
"$ c white",
/* pixels */
"                ",
"                ",
"                ",
"                ",
"      oooo      ",
"     @++++@     ",
"    o+$++#O.    ",
"    o++$#OO.    ",
"    o++##OX.    ",
"    o+#OO#X.    ",
"     @OOXXo     ",
"      ....      ",
"                ",
"                ",
"                ",
"                "
};
