/* XPM */
static char *_94c4b2fa54c4376db9396f8800154c7KDBJePGdOW2hivgv[] = {
/* columns rows colors chars-per-pixel */
"32 32 4 1 ",
"  c None",
". c black",
"X c gray19",
"o c white",
/* pixels */
"                                ",
"        .....                   ",
"      ..XXXXX..                 ",
"     .XXXXXXXXX..               ",
"    .XXXXXXXXXXXX.      ...     ",
"   .Xo.XXXXo.XXXXX.     ..X.    ",
"  .XX..XXXX..XXXXXX.     ..X.   ",
" .XXXXXXXXXXXXXXXXXX.     .X.   ",
" .XXXXXXXXXXXX.XXXXXX.   .XX.   ",
" .XXXX...XXXXX.XXXXXX....XX.    ",
"  .X.X...XXXXX.XXXXX.XXXXXX.    ",
"  .X.XX.XXXXX..XXXXX.XXXXX..    ",
"   .X.X..XXXXX.XXXX.XXXXXX.     ",
"    ...  .XXX.X.XXX.XXXXXX.     ",
"          ...XX.XX.XXXXXXX.     ",
"         .XXXXXX..XXXXXXXX.     ",
"         .XXXXXXXXXXXXXXXX.     ",
"        .XXXXXXXXXXXXXXXXXX.    ",
"        .XXXXXXXXXXX.XXXXXX.    ",
"       .XXXXXXXXXXXX.XXXXXXX.   ",
"       ..XXXXXX.XXX..XX..XXX.   ",
"       ...XXXXXX.XX. ..  .XXX.  ",
"       .XX.XXXXX.XX..     .XX.  ",
"       .XXX......XX..      .X.  ",
"        .XX.    .XX.       .X.  ",
"        .XX.    .XX.       .X.  ",
"        .XX.    .XX.       .X.  ",
"       .XXX.   .XXX.      .XX.  ",
"       .XXX.   .XXX.      ....  ",
"       .....   .....            ",
"                                ",
"                                "
};
