/* XPM */
static char *_add3a3c56984bf1e67d3b4ac6442716HIlTpprU8m6DAWtg[] = {
/* columns rows colors chars-per-pixel */
"32 32 7 1 ",
"  c None",
". c #18162A",
"X c #242A46",
"o c #263A5A",
"O c #2C5C6E",
"+ c #529894",
"@ c #7FBD8E",
/* pixels */
"                                ",
"                                ",
"                                ",
"                                ",
"            +@@@@@@+            ",
"         ++++@@@@@@++++         ",
"         ++++@@@@@@++++         ",
"        ++++@@++++++++++        ",
"       O+@@@@++OOOOOOOO+O       ",
"     OOO+@++++OOOoooOOOOOOO     ",
"     OOO@@++OOOOO..ooooOOOO     ",
"     OOO@@++OOOOO..ooooOOOO     ",
"    OOO@@+++OO.....oooooOOOO    ",
"    OOO@@+++O..@@@@XXXooOOOO    ",
"    OOOO@+++O.@@@.@@XXXooOOO    ",
"    OOOO@+++O.....+@@@XooOOO    ",
"    OOOO@+++O.....+@@@XooOOO    ",
"    OooO@@++OO...O+@XXXooOOO    ",
"    ooooO@+++OOOOO+XXXXooOOO    ",
"    ooooo@+++++++++XXXXooooo    ",
"     oooo@@@@++++@XXXXXoooo     ",
"     oooo@@@@++++@XXXXXoooo     ",
"     oooXX@@@@@@@XXXXXooooo     ",
"       oXXXXXXXXXXXXXXXoo       ",
"        oXXXXXXXXXXXXXXX        ",
"         XXXXXXXXXXXXXX         ",
"         XXXXXXXXXXXXXX         ",
"            XXXXXXXX            ",
"                                ",
"                                ",
"                                ",
"                                "
};
